<svg width="36" height="36" viewBox="0 0 36 36" fill="none" xmlns="http://www.w3.org/2000/svg">
    <path opacity="0.9" d="M18 6C11.3727 6 6 11.3727 6 18C6 24.6273 11.3727 30 18 30C24.6273 30 30 24.6273 30 18C29.9926 11.3758 24.6242 6.00742 18 6ZM18.4283 9.45957L22.6 7.79199C23.0734 8.00625 23.5314 8.25312 23.9707 8.53086L23.9816 8.5377C24.4133 8.81113 24.8258 9.11367 25.2164 9.44316L25.25 9.47246C25.4252 9.62168 25.5955 9.77617 25.7611 9.93555C25.782 9.95605 25.8039 9.97559 25.8248 9.99648C25.9984 10.166 26.1666 10.3408 26.3293 10.5207C26.3428 10.5359 26.3557 10.552 26.3691 10.5672C26.5119 10.7271 26.6492 10.8928 26.7824 11.0611C26.8145 11.1012 26.8465 11.1412 26.8775 11.1813C27.0221 11.3684 27.1619 11.5588 27.2939 11.7553L26.4623 15.2904L22.3707 16.6545L18.4293 13.5008L18.4283 9.45957ZM9.12207 11.1836C9.15313 11.1436 9.18477 11.1035 9.2168 11.0637C9.34844 10.8967 9.48457 10.7338 9.6252 10.5748C9.64043 10.558 9.65449 10.5408 9.66953 10.524C9.83125 10.3438 9.99863 10.1691 10.1721 10C10.192 9.98047 10.2119 9.95996 10.2328 9.94199C10.3971 9.78359 10.566 9.63008 10.7396 9.48164L10.7797 9.44805C11.1668 9.1209 11.5754 8.82031 12.0027 8.54805L12.0184 8.53809C12.4551 8.26094 12.9102 8.01445 13.3809 7.8L17.5717 9.45957V13.4996L13.6301 16.6527L9.53848 15.2912L8.70684 11.7561C8.84004 11.56 8.97832 11.3699 9.12207 11.1836ZM8.64004 24.1381C8.52246 23.9588 8.40996 23.7762 8.30273 23.59L8.27676 23.5451C8.17012 23.36 8.06914 23.1717 7.97402 22.9805L7.9707 22.9744C7.77031 22.5721 7.59434 22.158 7.44395 21.7344V21.7305C7.37285 21.5305 7.30801 21.3256 7.24805 21.1195L7.22637 21.0436C7.17148 20.85 7.12168 20.6543 7.07715 20.4564C7.07324 20.4371 7.06836 20.4187 7.06445 20.3996C6.96621 19.9527 6.8957 19.5004 6.85313 19.0447L9.29512 16.1145L13.3584 17.4688L14.5377 22.1855L12.6 24.7637L8.64004 24.1381ZM20.6637 28.8771C20.4637 28.9268 20.2584 28.9695 20.0531 29.008C20.0244 29.0137 19.9951 29.0184 19.9664 29.0236C19.7916 29.0549 19.6148 29.0816 19.4377 29.1035C19.3904 29.1096 19.3436 29.116 19.2965 29.1217C19.132 29.1408 18.966 29.1553 18.7996 29.1672C18.7473 29.1707 18.6955 29.176 18.6432 29.1793C18.4305 29.1924 18.216 29.2 18 29.2C17.8021 29.2 17.6055 29.1947 17.41 29.1844C17.3863 29.1844 17.3637 29.1805 17.34 29.1787C17.166 29.1688 16.9928 29.1557 16.8199 29.1389L16.8 29.1352C16.4213 29.0941 16.0447 29.034 15.6721 28.9553L13.3061 25.2508L15.2133 22.7076H20.7867L22.7252 25.2676L20.6637 28.8771ZM28.9385 20.4C28.9344 20.4191 28.9297 20.4377 28.9256 20.4568C28.8809 20.6545 28.8311 20.8502 28.7764 21.0439L28.7549 21.1199C28.6947 21.326 28.6301 21.5301 28.5588 21.7309V21.7348C28.4084 22.1584 28.2326 22.5725 28.032 22.9748L28.0287 22.9809C27.933 23.1723 27.8322 23.3605 27.726 23.5455L27.7 23.5904C27.5934 23.7771 27.4811 23.9594 27.3633 24.1377L23.4168 24.76L21.4656 22.184L22.6443 17.4684L26.7076 16.1141L29.1496 19.0443C29.1072 19.5002 29.0367 19.9529 28.9385 20.4Z" fill="#A07D5D"/>
</svg>
