<svg width="122" height="150" viewBox="0 0 122 150" fill="none" xmlns="http://www.w3.org/2000/svg">
    <path d="M28.4779 36.3946C29.0418 35.7515 29.4487 34.9853 29.6662 34.157C29.8837 33.3286 29.9059 32.4608 29.731 31.6223C28.8786 31.5437 28.0197 31.6678 27.2239 31.9845C26.4282 32.3013 25.718 32.8017 25.151 33.4453C24.584 34.0888 24.176 34.8574 23.9603 35.6887C23.7445 36.5201 23.727 37.3907 23.9091 38.2301C24.7603 38.3003 25.6161 38.1711 26.409 37.8526C27.2019 37.534 27.9102 37.0349 28.4779 36.3946Z" fill="#A07D5D"/>
    <path d="M33.724 127.216C32.8075 127.47 31.9556 127.918 31.2255 128.529C30.5381 129.127 30.0042 129.882 29.6689 130.731C30.4521 131.358 31.368 131.796 32.3463 132.012C33.3344 132.225 34.3603 132.182 35.3273 131.887C36.2238 131.606 37.0339 131.099 37.6809 130.416C38.3279 129.733 38.7903 128.895 39.0244 127.982C38.2658 127.497 37.415 127.175 36.5259 127.037C36.0678 126.965 35.6032 126.944 35.1405 126.974C34.6609 127.003 34.1858 127.084 33.724 127.216Z" fill="#A07D5D"/>
    <path d="M40.114 122.03C40.3543 122.915 40.4092 123.841 40.2752 124.748C40.1413 125.655 39.8214 126.525 39.3357 127.302C38.4679 127.051 37.6821 126.573 37.0586 125.917C36.4351 125.261 35.9961 124.451 35.7865 123.569C35.5735 122.662 35.5949 121.716 35.8488 120.819C36.0914 119.94 36.5128 119.121 37.0863 118.414C37.8097 118.712 38.4506 119.181 38.9543 119.781C39.507 120.432 39.9037 121.201 40.114 122.03Z" fill="#A07D5D"/>
    <path d="M27.8864 123.42C26.9566 123.528 26.0649 123.853 25.2824 124.368C24.4999 124.883 23.8484 125.575 23.3799 126.388C24.0823 127.116 24.949 127.664 25.9068 127.985C26.8646 128.306 27.8854 128.39 28.8827 128.232C29.8314 128.074 30.7178 127.654 31.4434 127.021C32.1277 126.423 32.6612 125.671 33.0001 124.826C32.3112 124.261 31.5176 123.839 30.6651 123.584C29.7612 123.331 28.8137 123.275 27.8864 123.42Z" fill="#A07D5D"/>
    <path d="M34.8681 119.047C34.9889 119.958 34.928 120.885 34.6891 121.772C34.4484 122.654 34.024 123.474 33.4438 124.178C32.6285 123.824 31.9162 123.267 31.3734 122.561C30.8262 121.824 30.485 120.953 30.3849 120.038C30.3079 119.121 30.4403 118.199 30.7721 117.341C31.1039 116.482 31.6263 115.712 32.2996 115.087C33.0076 115.498 33.6091 116.071 34.0554 116.759C34.5016 117.447 34.78 118.23 34.8681 119.047Z" fill="#A07D5D"/>
    <path d="M22.5548 118.898C21.6038 118.912 20.6679 119.139 19.8151 119.562C18.9936 119.964 18.2828 120.562 17.7448 121.304C18.3676 122.11 19.1664 122.762 20.0797 123.21C20.9872 123.653 21.9903 123.862 22.9985 123.819C23.9339 123.766 24.8406 123.475 25.6332 122.974C26.4257 122.472 27.0779 121.777 27.5284 120.952C26.891 120.277 26.1182 119.744 25.261 119.39C24.4037 119.036 23.4814 118.868 22.5548 118.898Z" fill="#A07D5D"/>
    <path d="M30.0191 115.438C30.0326 116.355 29.8586 117.264 29.5079 118.111C29.1571 118.957 28.6371 119.722 27.9799 120.359C27.1991 119.9 26.5532 119.242 26.1076 118.452C25.6619 117.662 25.4325 116.768 25.4425 115.86C25.4585 114.93 25.7074 114.02 26.1664 113.212C26.6228 112.423 27.2314 111.732 27.9565 111.181C28.584 111.648 29.091 112.259 29.4354 112.962C29.8143 113.732 30.0139 114.579 30.0191 115.438Z" fill="#A07D5D"/>
    <path d="M17.8226 113.767C16.896 113.653 15.9556 113.756 15.0752 114.067C14.1948 114.379 13.3982 114.891 12.7479 115.563C13.2533 116.439 13.9612 117.18 14.8119 117.724C15.6626 118.268 16.6312 118.598 17.6358 118.687C18.5942 118.759 19.5542 118.57 20.4145 118.141C21.2323 117.729 21.9417 117.13 22.4848 116.391C21.9497 115.663 21.2682 115.057 20.4845 114.61C19.6679 114.14 18.76 113.853 17.8226 113.767Z" fill="#A07D5D"/>
    <path d="M25.6526 111.251C25.5497 112.166 25.2637 113.051 24.812 113.852C24.3674 114.648 23.76 115.34 23.0296 115.883C22.3201 115.343 21.7623 114.627 21.4107 113.806C21.0562 112.955 20.9326 112.025 21.0527 111.111C21.2062 110.199 21.5659 109.335 22.1043 108.585C22.6427 107.835 23.3453 107.219 24.1582 106.784C24.7386 107.359 25.1762 108.063 25.4358 108.839C25.6954 109.615 25.7696 110.441 25.6526 111.251Z" fill="#A07D5D"/>
    <path d="M13.7519 108.096C12.8214 107.889 11.8571 107.889 10.9266 108.096C10.0325 108.287 9.19871 108.694 8.49817 109.283C8.90009 110.214 9.50677 111.042 10.2728 111.705C11.0454 112.357 11.9685 112.806 12.958 113.009C13.8781 113.185 14.8276 113.124 15.7177 112.831C16.6079 112.539 17.4097 112.025 18.0483 111.337C17.6012 110.523 16.9871 109.813 16.2465 109.254C15.5059 108.696 14.6557 108.301 13.7519 108.096Z" fill="#A07D5D"/>
    <path d="M21.8233 106.565C21.6164 107.459 21.2274 108.299 20.6809 109.035C20.1344 109.77 19.4421 110.384 18.6477 110.838C18.0031 110.201 17.5376 109.405 17.2984 108.53C17.0592 107.655 17.0548 106.732 17.2856 105.854C17.5246 104.956 17.988 104.133 18.6321 103.464C19.2611 102.798 20.0184 102.266 20.8581 101.902C21.3571 102.508 21.7017 103.226 21.8622 103.995C22.0529 104.843 22.0395 105.724 21.8233 106.565Z" fill="#A07D5D"/>
    <path d="M10.3974 101.957C9.52863 101.62 8.59392 101.488 7.66631 101.574C6.73871 101.659 5.84334 101.959 5.05023 102.449C5.32135 103.426 5.82395 104.323 6.51516 105.062C7.20636 105.802 8.06565 106.363 9.01972 106.698C9.93299 107.004 10.9116 107.058 11.8528 106.854C12.7435 106.654 13.5751 106.247 14.2812 105.667C13.9257 104.811 13.3958 104.038 12.7257 103.4C12.0556 102.761 11.2599 102.269 10.3896 101.957H10.3974Z" fill="#A07D5D"/>
    <path d="M18.6087 101.434C18.2952 102.296 17.8068 103.083 17.1744 103.746C16.5421 104.408 15.7795 104.932 14.935 105.284C14.3644 104.579 13.9915 103.734 13.8547 102.836C13.7179 101.938 13.8221 101.02 14.1567 100.176C14.5216 99.3322 15.0739 98.5832 15.7713 97.9863C16.4686 97.3893 17.2927 96.9602 18.1806 96.7316C18.6147 97.3856 18.882 98.1366 18.959 98.9185C19.0264 99.7725 18.9068 100.631 18.6087 101.434Z" fill="#A07D5D"/>
    <path d="M7.81329 95.4506C6.99304 95.0056 6.08104 94.7578 5.14912 94.7266C4.21719 94.6954 3.29078 94.8818 2.44281 95.271C2.47728 95.5345 2.52929 95.7955 2.59848 96.052C2.66853 96.2942 2.75414 96.5363 2.84754 96.7706C3.0405 97.2381 3.28319 97.6832 3.57139 98.0984C4.17337 98.9115 4.96788 99.5612 5.88303 99.9886C6.73269 100.385 7.66868 100.56 8.60369 100.496C9.5387 100.432 10.4423 100.131 11.2302 99.6215C10.9831 98.7251 10.5513 97.8907 9.96277 97.1722C9.3742 96.4537 8.64192 95.8672 7.81329 95.4506Z" fill="#A07D5D"/>
    <path d="M16.0481 95.9584C15.6272 96.7725 15.0436 97.4908 14.3339 98.0686C13.6242 98.6465 12.8035 99.0714 11.9229 99.317C11.4521 98.5424 11.1946 97.6564 11.1768 96.7493C11.1591 95.8422 11.3816 94.9466 11.8217 94.1541C12.2888 93.3627 12.9299 92.6887 13.6961 92.1838C14.4623 91.6789 15.3333 91.3564 16.2427 91.2408C16.3287 91.4137 16.399 91.5941 16.4528 91.7797C16.6582 92.3305 16.7432 92.9192 16.7019 93.5059C16.6767 94.3632 16.4529 95.2029 16.0481 95.9584Z" fill="#A07D5D"/>
    <path d="M6.101 88.6789C5.34466 88.1356 4.47295 87.7759 3.55452 87.6281C2.63609 87.4804 1.69602 87.5486 0.80835 87.8275C0.829582 88.3336 0.90261 88.8361 1.02628 89.3271C1.16085 89.8151 1.3488 90.2866 1.58668 90.7331C2.0553 91.6377 2.74992 92.4047 3.60256 92.9591C4.39648 93.4605 5.30426 93.7515 6.24085 93.8048C7.17743 93.8581 8.11217 93.6719 8.95748 93.2637C8.82902 92.341 8.50825 91.4558 8.01607 90.6658C7.5239 89.8759 6.87136 89.1988 6.101 88.6789Z" fill="#A07D5D"/>
    <path d="M14.1878 90.2018C13.6701 90.9574 13.0027 91.5978 12.2273 92.0829C11.4519 92.568 10.5852 92.8875 9.68125 93.0215C9.30933 92.1956 9.16236 91.2854 9.25534 90.3839C9.34832 89.4824 9.67792 88.6218 10.2105 87.8899C10.774 87.1627 11.4951 86.5739 12.319 86.1679C13.143 85.7619 14.0482 85.5495 14.9661 85.5467C15.0912 85.9125 15.1671 86.2933 15.1918 86.6792C15.2256 87.0699 15.2125 87.4633 15.1529 87.8508C15.0037 88.6951 14.6745 89.4971 14.1878 90.2018Z" fill="#A07D5D"/>
    <path d="M5.22144 81.743C4.53182 81.1053 3.70353 80.6377 2.80235 80.3774C1.90117 80.1171 0.951913 80.0712 0.0299699 80.2434C-0.0685495 81.2525 0.0766585 82.2705 0.453301 83.2113C0.829944 84.1522 1.42693 84.9881 2.19373 85.6483C2.91851 86.2442 3.78219 86.6457 4.70382 86.8151C5.62544 86.9845 6.57485 86.9163 7.46303 86.6168C7.44668 86.1682 7.39462 85.7216 7.30737 85.2812C7.20553 84.8406 7.0595 84.4114 6.8715 84.0003C6.48761 83.1387 5.92509 82.3692 5.22144 81.743Z" fill="#A07D5D"/>
    <path d="M13.0515 84.2581C12.4456 84.944 11.7047 85.4966 10.8756 85.8811C10.0464 86.2655 9.14685 86.4735 8.23363 86.4919C8.09886 86.0699 8.02546 85.6306 8.01569 85.1875C7.97806 84.5069 8.0787 83.8256 8.31151 83.1851C8.54432 82.5447 8.90444 81.9584 9.36999 81.4619C10.0163 80.8101 10.8025 80.3151 11.6685 80.0146C12.5344 79.7141 13.4574 79.616 14.3669 79.7279C14.5177 80.5336 14.4772 81.3637 14.2487 82.1507C14.0201 82.9378 13.61 83.6598 13.0515 84.2581Z" fill="#A07D5D"/>
    <path d="M5.19068 74.7524C4.58712 74.0418 3.82699 73.4821 2.9705 73.1174C2.114 72.7527 1.18465 72.5931 0.256059 72.6513C0.0333732 73.6384 0.0507911 74.6647 0.30684 75.6435C0.562889 76.6224 1.05004 77.525 1.7271 78.275C2.37864 78.9476 3.18931 79.4436 4.08351 79.7167C4.9777 79.9899 5.92628 80.0313 6.84074 79.8371C6.94139 78.9206 6.84629 77.9931 6.56177 77.1163C6.27725 76.2396 5.80984 75.4337 5.19068 74.7524Z" fill="#A07D5D"/>
    <path d="M12.6545 78.2048C11.9697 78.8135 11.1665 79.2729 10.2956 79.5539C9.42477 79.8349 8.50526 79.9314 7.59531 79.8373C7.44664 78.9449 7.53209 78.0291 7.84325 77.18C8.15441 76.3309 8.68056 75.5777 9.36991 74.9947C10.0938 74.425 10.9376 74.0283 11.8372 73.8348C12.7367 73.6413 13.6683 73.6559 14.5614 73.8778C14.6058 74.6988 14.4562 75.5187 14.1248 76.2707C13.7934 77.0226 13.2896 77.6854 12.6545 78.2048Z" fill="#A07D5D"/>
    <path d="M6.02313 67.8089C5.50683 67.0246 4.81648 66.371 4.00623 65.8994C3.19599 65.4279 2.28788 65.1511 1.35314 65.0908C1.03854 66.0543 0.929803 67.0736 1.03403 68.0822C1.17488 69.0846 1.55395 70.0383 2.13926 70.8628C2.70575 71.6538 3.4787 72.2728 4.37307 72.6514C5.21393 73.0046 6.12576 73.1544 7.03496 73.0888C7.12926 72.6496 7.18139 72.2024 7.19063 71.7532C7.21386 71.3007 7.1825 70.847 7.09723 70.402C7.01008 69.9461 6.87439 69.501 6.69249 69.0742C6.51289 68.6306 6.28861 68.2067 6.02313 67.8089Z" fill="#A07D5D"/>
    <path d="M12.997 72.1516C12.2402 72.6661 11.3878 73.0221 10.4908 73.1983C9.60518 73.3747 8.69221 73.3588 7.8133 73.1514C7.77803 72.7232 7.8016 72.2922 7.88335 71.8705C7.97608 71.4337 8.12522 71.011 8.327 70.6129C8.52484 70.2122 8.77052 69.8372 9.05863 69.496C9.37908 69.1368 9.74548 68.8216 10.1483 68.5588C10.9311 68.0819 11.8126 67.7917 12.7247 67.7105C13.6369 67.6292 14.5555 67.7591 15.4098 68.0901C15.3872 68.8772 15.1532 69.6436 14.7327 70.3083C14.3127 71.0557 13.7168 71.6886 12.997 72.1516Z" fill="#A07D5D"/>
    <path d="M7.68869 61.0136C7.46697 60.5868 7.20642 60.1815 6.91036 59.8029C6.61175 59.4471 6.27796 59.1226 5.9141 58.8344C5.1893 58.2759 4.33973 57.9033 3.43901 57.7487C2.98748 58.6554 2.75548 59.6563 2.76186 60.6699C2.75514 61.1729 2.81534 61.6746 2.94088 62.1617C3.06776 62.6559 3.25879 63.1312 3.50906 63.5754C3.97402 64.42 4.65341 65.126 5.47823 65.6218C6.26685 66.0814 7.15192 66.3489 8.06229 66.4029C8.3921 65.5589 8.52779 64.6512 8.45924 63.7473C8.40544 62.7903 8.14237 61.857 7.68869 61.0136Z" fill="#A07D5D"/>
    <path d="M14.0867 66.1999C13.2648 66.6177 12.3674 66.8647 11.4482 66.9263C10.5381 66.9889 9.62529 66.8558 8.77069 66.5358C8.85662 65.6541 9.15006 64.8054 9.62686 64.0598C10.1462 63.2865 10.8642 62.6684 11.705 62.2712C12.1231 62.0698 12.5652 61.9228 13.0204 61.8338C13.4727 61.7572 13.9321 61.731 14.3902 61.7557C15.2976 61.8174 16.1839 62.0589 16.9977 62.4665C16.8564 63.2368 16.5394 63.964 16.0714 64.5909C15.5389 65.2579 14.8735 65.8059 14.1178 66.1999H14.0867Z" fill="#A07D5D"/>
    <path d="M10.1483 54.484C9.84603 53.5997 9.34257 52.7984 8.67784 52.1436C8.01311 51.4887 7.20542 50.9983 6.31888 50.7114C5.75213 51.5497 5.39535 52.5129 5.27882 53.5191C5.16229 54.5253 5.28945 55.5449 5.64951 56.4913C6.01073 57.3609 6.58442 58.1251 7.31764 58.7134C8.05085 59.3018 8.91995 59.6953 9.84471 59.8577C10.2664 59.0329 10.5112 58.1286 10.5635 57.2031C10.6158 56.2775 10.4743 55.3513 10.1483 54.484Z" fill="#A07D5D"/>
    <path d="M15.8768 60.4199C15.0224 60.7381 14.1114 60.8747 13.2016 60.8209C12.2919 60.7671 11.4032 60.5242 10.5919 60.1075C10.7615 59.2142 11.1642 58.382 11.7591 57.6959C12.3539 57.0098 13.1195 56.4943 13.9777 56.2022C14.8587 55.9386 15.7878 55.8789 16.6951 56.0278C17.6024 56.1766 18.4643 56.53 19.2158 57.0614C18.9645 57.8468 18.5306 58.5609 17.9501 59.1449C17.3695 59.7289 16.6588 60.1659 15.8768 60.4199Z" fill="#A07D5D"/>
    <path d="M13.4718 48.3213C13.2578 47.3858 12.8376 46.5104 12.242 45.7594C11.6897 45.0399 10.9711 44.4662 10.1483 44.088C9.50227 44.867 9.03463 45.7789 8.77844 46.7592C8.52568 47.7402 8.52568 48.7696 8.77844 49.7507C8.89668 50.2255 9.08281 50.6806 9.33106 51.1019C9.55405 51.5058 9.8288 51.8787 10.1483 52.211C10.8067 52.8543 11.6065 53.3332 12.4833 53.6091C12.6078 53.4216 12.7168 53.2264 12.8258 53.0233C12.9347 52.8202 13.0359 52.6328 13.1215 52.4219C13.3015 52.0086 13.4347 51.5763 13.5185 51.1331C13.6931 50.2024 13.6772 49.2457 13.4718 48.3213Z" fill="#A07D5D"/>
    <path d="M18.3986 54.9213C17.946 55.022 17.4845 55.077 17.021 55.0853C16.5696 55.0959 16.1183 55.0592 15.6745 54.976C14.7776 54.8161 13.9255 54.4645 13.176 53.945C13.2449 53.7324 13.3255 53.5238 13.4173 53.3201C13.5137 53.1215 13.6256 52.9309 13.752 52.7499C13.9985 52.3803 14.2857 52.0397 14.6082 51.7346C15.2867 51.1123 16.1252 50.693 17.0288 50.5239C17.9328 50.3446 18.8674 50.3984 19.7451 50.6801C20.6056 50.9619 21.4 51.4163 22.0801 52.0157C21.7673 52.7362 21.2772 53.3651 20.6558 53.8434C19.9933 54.3678 19.2219 54.7361 18.3986 54.9213Z" fill="#A07D5D"/>
    <path d="M17.4802 42.5962C17.403 41.6652 17.1101 40.7652 16.625 39.9678C16.1399 39.1705 15.4759 38.4978 14.686 38.0035C14.3176 38.3473 13.9839 38.7267 13.6897 39.1361C13.4085 39.5559 13.1761 40.0067 12.997 40.4795C12.6178 41.4196 12.4942 42.4438 12.6389 43.4475C12.7722 44.3771 13.1384 45.2574 13.7034 46.0061C14.2683 46.7547 15.0135 47.3471 15.869 47.7278C16.4761 47.0524 16.9302 46.253 17.2 45.3846C17.4973 44.4873 17.593 43.535 17.4802 42.5962Z" fill="#A07D5D"/>
    <path d="M21.5664 49.7662C20.6564 49.8612 19.7367 49.7666 18.8648 49.4884C17.9929 49.2102 17.1877 48.7544 16.4995 48.1495C16.8926 47.3488 17.4752 46.657 18.1962 46.1343C18.9535 45.6191 19.8298 45.3071 20.7414 45.2283C21.6592 45.1871 22.5742 45.3564 23.4171 45.7231C24.26 46.0899 25.0086 46.6445 25.6059 47.345C25.4095 47.6804 25.1657 47.9856 24.8821 48.251C24.6085 48.531 24.3028 48.7774 23.9714 48.9852C23.2341 49.414 22.4142 49.6802 21.5664 49.7662Z" fill="#A07D5D"/>
    <path d="M22.1735 37.4333C22.2065 36.4952 22.0227 35.5621 21.6365 34.7071C21.2503 33.8521 20.6722 33.0983 19.9475 32.5048C19.1402 33.109 18.467 33.875 17.9705 34.7543C17.4996 35.6526 17.2538 36.6526 17.2545 37.6676C17.2646 38.6325 17.5335 39.5768 18.0328 40.4014C18.5095 41.1831 19.1627 41.8412 19.9397 42.3228C20.2726 42.0229 20.575 41.6906 20.8426 41.3308C21.1159 40.9713 21.3507 40.5838 21.5431 40.1749C21.7415 39.7544 21.8879 39.3111 21.9789 38.8549C22.0996 38.3904 22.165 37.9132 22.1735 37.4333Z" fill="#A07D5D"/>
    <path d="M25.3413 45.0408C24.4277 45.0157 23.5281 44.8086 22.695 44.4316C21.8633 44.0564 21.1224 43.5048 20.5234 42.8148C20.7574 42.438 21.0401 42.0939 21.364 41.7916C22.029 41.1916 22.8309 40.7651 23.699 40.5497C24.157 40.4542 24.6251 40.4175 25.0922 40.4404C26.0052 40.51 26.8901 40.7883 27.6793 41.254C28.4685 41.7197 29.1411 42.3605 29.6455 43.1272C29.1741 43.7504 28.5453 44.2357 27.8242 44.5331C27.0497 44.9016 26.1977 45.0758 25.3413 45.0408Z" fill="#A07D5D"/>
    <path d="M39.1955 128.146C39.1469 128.157 39.0963 128.157 39.0476 128.146C31.2054 124.596 24.3056 119.243 18.9062 112.522C13.5068 105.8 9.75917 97.898 7.9664 89.454C6.17364 81.01 6.386 72.2612 8.58633 63.9148C10.7867 55.5684 14.9132 47.8586 20.6323 41.4089C20.699 41.3474 20.786 41.3128 20.8766 41.312C20.9671 41.3111 21.0548 41.344 21.1225 41.4042C21.1903 41.4645 21.2334 41.5478 21.2435 41.6381C21.2536 41.7285 21.23 41.8193 21.1772 41.8931C15.5406 48.257 11.4745 55.862 9.30735 64.0939C7.14021 72.3257 6.93277 80.9537 8.70178 89.2809C10.4708 97.6081 14.1667 105.401 19.4909 112.03C24.8151 118.659 31.6183 123.939 39.3512 127.443C39.4386 127.484 39.5064 127.557 39.5399 127.648C39.5734 127.739 39.57 127.839 39.5302 127.927C39.5015 127.992 39.4547 128.048 39.3952 128.086C39.3358 128.125 39.2664 128.146 39.1955 128.146Z" fill="#A07D5D"/>
    <path d="M93.5465 36.3946C92.9794 35.7534 92.5705 34.9874 92.3528 34.1584C92.1351 33.3294 92.1148 32.4607 92.2934 31.6223C93.1446 31.5464 94.0017 31.6724 94.7953 31.9903C95.589 32.3082 96.2971 32.809 96.8623 33.4522C97.4275 34.0954 97.834 34.863 98.049 35.693C98.2639 36.523 98.2813 37.3921 98.0997 38.2301C97.251 38.2985 96.398 38.1683 95.6079 37.8498C94.8178 37.5313 94.1122 37.0332 93.5465 36.3946Z" fill="#A07D5D"/>
    <path d="M86.2379 123.569C86.4509 122.662 86.4295 121.716 86.1756 120.819C85.9297 119.942 85.5087 119.123 84.9381 118.414C84.2137 118.71 83.5724 119.179 83.0701 119.781C82.5174 120.432 82.1207 121.201 81.9104 122.03C81.672 122.915 81.6181 123.841 81.752 124.748C81.886 125.655 82.2048 126.524 82.6887 127.302C83.5562 127.05 84.3415 126.572 84.9649 125.916C85.5884 125.26 86.0276 124.45 86.2379 123.569Z" fill="#A07D5D"/>
    <path d="M86.6894 131.887C85.7943 131.603 84.9856 131.096 84.339 130.413C83.6924 129.73 83.2291 128.894 82.9923 127.982C83.7543 127.498 84.6074 127.176 85.4985 127.037C85.9566 126.965 86.4213 126.944 86.884 126.974C87.3604 126.998 87.8329 127.073 88.2927 127.201C89.2116 127.454 90.066 127.902 90.799 128.513C91.4864 129.111 92.0203 129.867 92.3556 130.716C91.5628 131.346 90.636 131.784 89.647 131.997C88.6677 132.21 87.6504 132.173 86.6894 131.887Z" fill="#A07D5D"/>
    <path d="M91.6474 120.038C91.7229 119.121 91.5889 118.198 91.2558 117.34C90.9227 116.482 90.3992 115.711 89.7249 115.087C89.0157 115.496 88.4132 116.069 87.9668 116.757C87.5204 117.445 87.2427 118.23 87.1564 119.047C87.0318 119.958 87.0927 120.885 87.3354 121.772C87.5764 122.652 87.9979 123.472 88.573 124.178C89.408 123.828 90.1339 123.259 90.6747 122.53C91.2155 121.802 91.5515 120.942 91.6474 120.038Z" fill="#A07D5D"/>
    <path d="M93.1184 128.232C92.1678 128.072 91.2792 127.654 90.5499 127.021C89.8673 126.422 89.3341 125.67 88.9932 124.826C89.682 124.262 90.4757 123.839 91.3282 123.585C92.2358 123.323 93.189 123.262 94.1224 123.405C95.0492 123.519 95.9367 123.848 96.7148 124.366C97.4929 124.884 98.1403 125.576 98.6056 126.389C97.9048 127.114 97.0407 127.66 96.0858 127.981C95.1309 128.302 94.1133 128.388 93.1184 128.232Z" fill="#A07D5D"/>
    <path d="M96.543 115.86C96.5347 114.929 96.2852 114.017 95.8192 113.212C95.3655 112.423 94.7596 111.733 94.0368 111.181C93.4069 111.648 92.8973 112.258 92.5502 112.962C92.1739 113.733 91.977 114.58 91.9742 115.438C91.9574 116.355 92.13 117.266 92.4809 118.112C92.8319 118.959 93.3536 119.724 94.0135 120.359C94.7944 119.901 95.4401 119.243 95.8846 118.453C96.329 117.662 96.5563 116.767 96.543 115.86Z" fill="#A07D5D"/>
    <path d="M99.0492 123.819C98.1138 123.766 97.2071 123.475 96.4146 122.974C95.622 122.472 94.9698 121.777 94.5193 120.952C95.1532 120.281 95.9209 119.751 96.7725 119.397C97.624 119.043 98.5404 118.873 99.4617 118.898C100.415 118.912 101.354 119.139 102.209 119.562C103.028 119.964 103.737 120.563 104.272 121.304C103.651 122.112 102.852 122.765 101.937 123.21C101.039 123.648 100.047 123.857 99.0492 123.819Z" fill="#A07D5D"/>
    <path d="M100.972 111.111C100.822 110.203 100.469 109.341 99.9371 108.591C99.4057 107.842 98.7107 107.223 97.9051 106.784C97.3136 107.353 96.8643 108.054 96.5938 108.831C96.3233 109.607 96.2392 110.436 96.3484 111.251C96.4523 112.165 96.7353 113.049 97.1812 113.852C97.6311 114.647 98.2408 115.338 98.9714 115.883C99.6809 115.343 100.239 114.627 100.59 113.806C100.953 112.957 101.084 112.027 100.972 111.111Z" fill="#A07D5D"/>
    <path d="M104.389 118.734C103.428 118.806 102.465 118.617 101.602 118.187C100.788 117.774 100.08 117.178 99.5318 116.446C100.069 115.72 100.75 115.114 101.532 114.665C102.35 114.188 103.26 113.892 104.202 113.798C105.128 113.684 106.069 113.788 106.949 114.099C107.829 114.411 108.626 114.923 109.277 115.594C108.773 116.473 108.066 117.217 107.215 117.764C106.364 118.31 105.395 118.643 104.389 118.734Z" fill="#A07D5D"/>
    <path d="M104.739 105.854C104.495 104.958 104.032 104.136 103.392 103.464C102.76 102.801 102.004 102.27 101.166 101.902C100.664 102.506 100.319 103.225 100.162 103.995C99.9638 104.83 99.9638 105.699 100.162 106.534C100.369 107.426 100.757 108.266 101.302 109.002C101.847 109.737 102.538 110.351 103.33 110.806C103.979 110.179 104.451 109.39 104.698 108.521C104.946 107.651 104.96 106.731 104.739 105.854Z" fill="#A07D5D"/>
    <path d="M109.066 112.97C108.146 113.146 107.197 113.085 106.307 112.792C105.416 112.5 104.615 111.986 103.976 111.298C104.67 110.075 105.732 109.103 107.01 108.523C108.288 107.942 109.716 107.782 111.09 108.065C111.987 108.253 112.824 108.661 113.526 109.252C113.123 110.182 112.513 111.008 111.744 111.665C110.974 112.318 110.054 112.767 109.066 112.97Z" fill="#A07D5D"/>
    <path d="M107.837 100.176C107.469 99.3327 106.915 98.5842 106.216 97.9875C105.518 97.3907 104.693 96.9612 103.805 96.7316C103.374 97.387 103.107 98.1373 103.027 98.9185C102.962 99.773 103.084 100.631 103.385 101.434C103.698 102.294 104.186 103.081 104.816 103.743C105.447 104.406 106.208 104.931 107.05 105.284C107.61 104.587 107.978 103.755 108.117 102.871C108.263 101.963 108.166 101.033 107.837 100.176Z" fill="#A07D5D"/>
    <path d="M112.997 106.698C112.086 107.004 111.11 107.058 110.172 106.854C109.279 106.654 108.444 106.247 107.735 105.667C108.085 104.833 108.598 104.079 109.245 103.449C109.92 102.786 110.73 102.277 111.619 101.957C112.489 101.62 113.425 101.488 114.354 101.574C115.283 101.659 116.18 101.959 116.974 102.449C116.701 103.426 116.197 104.323 115.504 105.063C114.812 105.802 113.952 106.363 112.997 106.698Z" fill="#A07D5D"/>
    <path d="M110.203 94.1541C109.735 93.3617 109.093 92.6872 108.325 92.1822C107.557 91.6773 106.685 91.3552 105.774 91.2408C105.695 91.4166 105.624 91.5965 105.564 91.7797C105.5 91.961 105.448 92.1463 105.408 92.3343C105.33 92.7196 105.299 93.113 105.315 93.5059C105.347 94.3632 105.573 95.202 105.976 95.9584C106.395 96.7742 106.978 97.4939 107.688 98.072C108.398 98.6501 109.22 99.074 110.102 99.317C110.571 98.5419 110.827 97.656 110.845 96.7492C110.863 95.8425 110.641 94.9471 110.203 94.1541Z" fill="#A07D5D"/>
    <path d="M116.141 99.9886C115.292 100.385 114.356 100.56 113.421 100.496C112.486 100.432 111.582 100.131 110.794 99.6215C111.036 98.7273 111.463 97.894 112.046 97.1756C112.629 96.4571 113.356 95.8695 114.18 95.4506C115 95.0056 115.912 94.7578 116.844 94.7266C117.776 94.6954 118.703 94.8818 119.55 95.271C119.516 95.5345 119.464 95.7955 119.395 96.052C119.325 96.2942 119.239 96.5363 119.146 96.7706C118.953 97.2381 118.71 97.6832 118.422 98.0984C117.829 98.9075 117.045 99.5568 116.141 99.9886Z" fill="#A07D5D"/>
    <path d="M111.814 87.8899C111.25 87.1632 110.529 86.5746 109.705 86.1687C108.881 85.7627 107.976 85.5501 107.058 85.5467C106.933 85.9125 106.857 86.2933 106.833 86.6792C106.799 87.0699 106.812 87.4633 106.871 87.8508C107.015 88.6944 107.345 89.495 107.837 90.194C108.353 90.9494 109.019 91.5897 109.793 92.0749C110.567 92.56 111.432 92.8796 112.335 93.0136C112.707 92.1894 112.854 91.2812 112.763 90.3812C112.671 89.4813 112.344 88.6217 111.814 87.8899Z" fill="#A07D5D"/>
    <path d="M118.422 92.959C117.628 93.4604 116.72 93.7514 115.784 93.8047C114.847 93.858 113.912 93.6718 113.067 93.2636C113.2 92.3473 113.521 91.469 114.012 90.6849C114.503 89.9007 115.151 89.2281 115.916 88.71C116.675 88.1659 117.549 87.8059 118.47 87.6581C119.391 87.5104 120.334 87.579 121.224 87.8586C121.203 88.3647 121.13 88.8672 121.006 89.3583C120.872 89.8476 120.681 90.3195 120.438 90.7642C119.965 91.6578 119.271 92.4138 118.422 92.959Z" fill="#A07D5D"/>
    <path d="M112.623 81.4618C111.979 80.8102 111.194 80.3152 110.329 80.0147C109.464 79.7141 108.543 79.616 107.634 79.7279C107.483 80.5354 107.525 81.3676 107.758 82.1554C107.991 82.9432 108.407 83.664 108.973 84.258C109.578 84.9447 110.319 85.4978 111.148 85.8823C111.978 86.2668 112.877 86.4744 113.791 86.4919C113.926 86.0699 113.999 85.6306 114.009 85.1875C114.044 84.5045 113.939 83.8215 113.7 83.1807C113.462 82.5399 113.096 81.955 112.623 81.4618Z" fill="#A07D5D"/>
    <path d="M119.807 85.6483C119.083 86.2441 118.219 86.6456 117.297 86.815C116.376 86.9844 115.426 86.9162 114.538 86.6168C114.547 86.1676 114.599 85.7203 114.694 85.2812C114.792 84.8395 114.938 84.41 115.13 84.0002C115.52 83.1365 116.091 82.3668 116.803 81.743C117.49 81.1087 118.314 80.6432 119.211 80.3829C120.108 80.1227 121.053 80.0749 121.971 80.2433C122.068 81.2522 121.922 82.2697 121.545 83.2102C121.169 84.1507 120.573 84.9868 119.807 85.6483Z" fill="#A07D5D"/>
    <path d="M112.662 74.9946C111.935 74.4194 111.086 74.019 110.181 73.824C109.276 73.629 108.338 73.6447 107.44 73.8699C107.393 74.6915 107.541 75.5126 107.871 76.266C108.201 77.0194 108.704 77.6837 109.339 78.2048C110.023 78.8138 110.826 79.2735 111.697 79.5545C112.568 79.8355 113.488 79.9318 114.398 79.8372C114.551 78.9483 114.472 78.0347 114.168 77.1858C113.863 76.3369 113.345 75.5819 112.662 74.9946Z" fill="#A07D5D"/>
    <path d="M120.298 78.2595C119.646 78.9321 118.835 79.4281 117.941 79.7012C117.047 79.9744 116.098 80.0158 115.184 79.8216C115.08 78.9013 115.173 77.9693 115.458 77.0883C115.743 76.2072 116.212 75.3975 116.834 74.7135C117.441 74.01 118.203 73.4576 119.06 73.0998C119.916 72.742 120.843 72.5885 121.769 72.6515C121.987 73.6362 121.967 74.659 121.711 75.6346C121.455 76.6101 120.971 77.5101 120.298 78.2595Z" fill="#A07D5D"/>
    <path d="M111.892 68.5587C111.109 68.0824 110.227 67.7925 109.315 67.7113C108.403 67.6301 107.485 67.7596 106.63 68.0901C106.648 68.8757 106.877 69.6419 107.292 70.3083C107.704 71.051 108.289 71.6832 108.996 72.1516C109.756 72.6663 110.611 73.0222 111.51 73.1982C112.403 73.3781 113.325 73.3621 114.211 73.1513C114.242 72.7091 114.211 72.2647 114.118 71.8313C114.018 71.3966 113.869 70.9747 113.674 70.5738C113.476 70.1713 113.228 69.7959 112.935 69.4569C112.628 69.1122 112.278 68.8102 111.892 68.5587Z" fill="#A07D5D"/>
    <path d="M119.893 70.8628C119.327 71.6573 118.55 72.2768 117.651 72.6514C116.809 73.0106 115.895 73.1658 114.982 73.1045C114.895 72.6641 114.843 72.2175 114.826 71.7688C114.794 70.8492 114.967 69.934 115.332 69.0898C115.504 68.638 115.729 68.208 116.001 67.8089C116.518 67.0246 117.208 66.371 118.018 65.8994C118.828 65.4279 119.737 65.1511 120.671 65.0908C120.982 66.0552 121.091 67.0737 120.99 68.0822C120.854 69.0846 120.478 70.0388 119.893 70.8628Z" fill="#A07D5D"/>
    <path d="M110.343 62.2712C109.928 62.0687 109.488 61.9216 109.035 61.8338C108.583 61.7572 108.124 61.731 107.665 61.7557C106.758 61.8174 105.872 62.0589 105.058 62.4665C105.199 63.2368 105.516 63.964 105.984 64.5909C106.242 64.9135 106.531 65.2092 106.848 65.4735C107.183 65.7555 107.549 65.9991 107.938 66.1999C108.759 66.6187 109.657 66.8658 110.576 66.9263C111.486 66.9889 112.399 66.8558 113.254 66.5358C113.17 65.6487 112.877 64.7944 112.398 64.0442C111.882 63.2806 111.173 62.6686 110.343 62.2712Z" fill="#A07D5D"/>
    <path d="M118.546 63.5755C118.079 64.4143 117.4 65.1148 116.577 65.6063C115.788 66.0648 114.903 66.3322 113.993 66.3873C113.663 65.5434 113.528 64.6356 113.596 63.7317C113.656 62.7822 113.921 61.8572 114.375 61.0214C114.591 60.5915 114.852 60.1857 115.153 59.8108C115.448 59.4513 115.782 59.1264 116.149 58.8423C116.871 58.2839 117.718 57.9112 118.616 57.7566C119.07 58.6628 119.305 59.6635 119.301 60.6778C119.304 61.1806 119.244 61.6818 119.122 62.1696C118.989 62.6603 118.796 63.1325 118.546 63.5755Z" fill="#A07D5D"/>
    <path d="M108.039 56.2491C107.159 55.9856 106.231 55.926 105.325 56.0748C104.419 56.2237 103.559 56.5771 102.809 57.1083C103.061 57.8903 103.496 58.6006 104.077 59.1806C104.657 59.7605 105.367 60.1934 106.148 60.4434C107.002 60.7616 107.913 60.8982 108.823 60.8444C109.732 60.7906 110.621 60.5477 111.432 60.131C111.258 59.241 110.853 58.4131 110.257 57.7313C109.661 57.0495 108.896 56.5382 108.039 56.2491Z" fill="#A07D5D"/>
    <path d="M116.344 56.4913C115.983 57.3609 115.409 58.1251 114.676 58.7134C113.942 59.3018 113.073 59.6953 112.149 59.8577C111.725 59.0335 111.479 58.1291 111.427 57.2032C111.375 56.2774 111.517 55.3509 111.845 54.484C112.147 53.5997 112.651 52.7984 113.315 52.1436C113.98 51.4887 114.788 50.9983 115.674 50.7114C116.241 51.5497 116.598 52.5129 116.714 53.5191C116.831 54.5253 116.704 55.5449 116.344 56.4913Z" fill="#A07D5D"/>
    <path d="M104.988 50.5239C104.084 50.3446 103.149 50.3984 102.272 50.6801C101.411 50.9629 100.617 51.4172 99.9365 52.0157C100.249 52.7343 100.736 53.3627 101.353 53.8434C102.026 54.3695 102.808 54.7377 103.641 54.9213C104.094 55.0225 104.555 55.0775 105.019 55.0853C105.47 55.0959 105.922 55.0592 106.366 54.976C107.262 54.8161 108.114 54.4645 108.864 53.945C108.795 53.7324 108.715 53.5238 108.623 53.3201C108.526 53.1215 108.414 52.9309 108.288 52.7499C108.039 52.3801 107.749 52.0395 107.424 51.7346C106.742 51.1083 105.898 50.6886 104.988 50.5239Z" fill="#A07D5D"/>
    <path d="M113.262 49.7507C113.136 50.2232 112.951 50.6774 112.709 51.1019C112.471 51.5086 112.181 51.8816 111.845 52.211C111.185 52.8527 110.386 53.3313 109.51 53.6091C109.384 53.4211 109.269 53.2255 109.167 53.0233C109.066 52.828 108.957 52.6328 108.872 52.4219C108.692 52.0086 108.559 51.5763 108.475 51.1331C108.305 50.2013 108.326 49.2446 108.537 48.3213C108.753 47.385 109.176 46.5094 109.775 45.7594C110.339 45.0395 111.068 44.4662 111.899 44.088C112.551 44.8645 113.021 45.7771 113.277 46.7592C113.525 47.7415 113.519 48.771 113.262 49.7507Z" fill="#A07D5D"/>
    <path d="M101.283 45.2283C100.364 45.1871 99.4479 45.3563 98.6038 45.723C97.7596 46.0897 97.0097 46.6444 96.4107 47.345C96.6121 47.677 96.8554 47.9815 97.1346 48.251C97.4114 48.5274 97.7167 48.7735 98.0452 48.9852C98.7859 49.4128 99.608 49.679 100.458 49.7663C101.367 49.8611 102.285 49.7664 103.156 49.4881C104.027 49.2099 104.83 48.7542 105.517 48.1495C105.134 47.3285 104.54 46.6249 103.796 46.1114C103.051 45.5978 102.184 45.293 101.283 45.2283Z" fill="#A07D5D"/>
    <path d="M109.385 43.4475C109.252 44.3771 108.886 45.2574 108.321 46.0061C107.756 46.7547 107.011 47.3471 106.155 47.7278C105.542 47.0345 105.081 46.219 104.804 45.3346C104.526 44.4503 104.438 43.5172 104.544 42.5962C104.62 41.6657 104.911 40.7659 105.395 39.9685C105.879 39.1711 106.542 38.4983 107.331 38.0035C107.704 38.3451 108.04 38.7247 108.335 39.1361C108.616 39.5559 108.848 40.0067 109.027 40.4795C109.403 41.4205 109.526 42.4438 109.385 43.4475Z" fill="#A07D5D"/>
    <path d="M96.9322 40.4404C96.0193 40.51 95.1344 40.7883 94.3452 41.254C93.556 41.7197 92.8834 42.3605 92.379 43.1272C92.8525 43.7515 93.4841 44.237 94.2081 44.5331C94.9839 44.8962 95.8359 45.0651 96.691 45.0252C97.6045 44.9993 98.5038 44.7922 99.3373 44.416C100.169 44.0408 100.91 43.4892 101.509 42.7992C101.272 42.4242 100.99 42.0804 100.668 41.776C100.336 41.4746 99.9704 41.2125 99.5786 40.9949C99.1849 40.7846 98.7665 40.6246 98.3332 40.5185C97.8714 40.4328 97.4006 40.4066 96.9322 40.4404Z" fill="#A07D5D"/>
    <path d="M104.762 37.6676C104.756 38.633 104.487 39.5784 103.984 40.4014C103.503 41.1795 102.85 41.8368 102.077 42.3228C101.758 42.021 101.468 41.6888 101.213 41.3308C100.937 40.9732 100.702 40.5854 100.513 40.1749C100.315 39.7533 100.166 39.3104 100.069 38.8549C99.9545 38.3894 99.8919 37.9126 99.882 37.4333C99.8521 36.4956 100.037 35.5635 100.423 34.7089C100.809 33.8544 101.386 33.1003 102.108 32.5048C102.918 33.1087 103.594 33.8747 104.093 34.7543C104.546 35.6574 104.775 36.6567 104.762 37.6676Z" fill="#A07D5D"/>
    <path d="M82.8288 128.146C82.7442 128.148 82.6616 128.12 82.595 128.068C82.5284 128.015 82.4819 127.942 82.4635 127.859C82.4452 127.776 82.456 127.689 82.4943 127.613C82.5325 127.537 82.5957 127.477 82.6732 127.443C90.3983 123.935 97.194 118.655 102.512 112.028C107.831 105.402 111.523 97.6134 113.292 89.2917C115.06 80.97 114.855 72.3478 112.694 64.1201C110.532 55.8925 106.474 48.2896 100.847 41.9246C100.813 41.8911 100.786 41.851 100.767 41.8067C100.748 41.7625 100.739 41.7149 100.739 41.6668C100.739 41.6187 100.748 41.5712 100.767 41.5269C100.786 41.4826 100.813 41.4425 100.847 41.4091C100.916 41.3413 101.008 41.3033 101.104 41.3033C101.2 41.3033 101.292 41.3413 101.361 41.4091C107.07 47.8593 111.189 55.5663 113.384 63.9079C115.578 72.2496 115.788 80.9922 113.996 89.4302C112.204 97.8681 108.459 105.765 103.066 112.483C97.6721 119.202 90.78 124.554 82.9456 128.107C82.9094 128.127 82.8698 128.14 82.8288 128.146Z" fill="#A07D5D"/>
    <path d="M60.8565 138.737L62.2497 143.041H66.7563L63.1059 145.696L64.4991 150L60.8565 147.337L57.2139 150L58.5993 145.696L54.9568 143.041H59.4633L60.8565 138.737Z" fill="#A07D5D"/>
    <path d="M61.2613 114.907C53.9772 114.905 46.8572 112.736 40.8014 108.674C34.7457 104.612 30.0262 98.8392 27.2398 92.0855C24.4534 85.3318 23.7251 77.9007 25.1471 70.7317C26.5691 63.5627 30.0775 56.9778 35.2287 51.8097C40.3798 46.6415 46.9424 43.1222 54.0867 41.6967C61.2309 40.2713 68.6359 41.0037 75.3654 43.8013C82.0948 46.5989 87.8465 51.3362 91.8932 57.414C95.9398 63.4919 98.0997 70.6374 98.0997 77.947C98.0874 87.7469 94.202 97.1418 87.2959 104.071C80.3898 110.999 71.0269 114.897 61.2613 114.907ZM61.2613 41.7213C54.1216 41.7213 47.1422 43.8459 41.2058 47.8265C35.2693 51.807 30.6424 57.4647 27.9102 64.084C25.1779 70.7034 24.4631 77.9872 25.8559 85.0143C27.2488 92.0414 30.6869 98.4961 35.7355 103.562C40.784 108.629 47.2162 112.079 54.2187 113.477C61.2213 114.874 68.4796 114.157 75.0758 111.415C81.672 108.673 87.3099 104.03 91.2765 98.0729C95.2431 92.1156 97.3603 85.1118 97.3603 77.947C97.3479 68.3432 93.5407 59.1362 86.7735 52.3453C80.0063 45.5543 70.8316 41.7337 61.2613 41.7213Z" fill="#A07D5D"/>
    <path d="M87.2031 98.0828C84.1511 102.08 80.2229 105.319 75.7229 107.548C71.2229 109.777 66.2719 110.937 61.2536 110.937C56.2352 110.937 51.2842 109.777 46.7842 107.548C42.2842 105.319 38.356 102.08 35.304 98.0828V103.894H30.0425C33.835 108.52 38.6013 112.246 43.999 114.803C49.3968 117.361 55.292 118.688 61.2613 118.688C67.2307 118.688 73.1259 117.361 78.5236 114.803C83.9214 112.246 88.6877 108.52 92.4802 103.894H87.2031V98.0828Z" fill="#A07D5D"/>
    <path d="M79.0929 55.7805C79.4587 49.3211 80.1125 43.2835 80.9686 37.6052H40.869C41.7174 43.2522 42.379 49.3211 42.737 55.7805H79.0929Z" fill="#A07D5D"/>
    <path d="M80.2759 90.5299H41.5539C41.4372 91.4828 41.3204 92.4435 41.1881 93.3652C41.0388 94.4487 41.1558 95.5525 41.5289 96.5803C41.9019 97.6081 42.5198 98.5288 43.3285 99.2622C48.1324 103.673 54.4077 106.119 60.9188 106.119C67.43 106.119 73.7052 103.673 78.5091 99.2622C79.317 98.5284 79.9338 97.6074 80.3055 96.5796C80.6772 95.5517 80.7927 94.4481 80.6417 93.3652C80.5172 92.4435 80.3927 91.4828 80.2759 90.5299Z" fill="#A07D5D"/>
    <path d="M36.1679 105.456C36.171 105.214 36.2452 104.979 36.3814 104.779C36.5175 104.58 36.7094 104.425 36.9329 104.334C37.1565 104.244 37.4017 104.222 37.6377 104.271C37.8737 104.32 38.0899 104.438 38.2593 104.61C38.4286 104.782 38.5435 105.001 38.5894 105.238C38.6353 105.476 38.6102 105.721 38.5173 105.945C38.4243 106.168 38.2677 106.358 38.0671 106.492C37.8665 106.626 37.6309 106.698 37.3899 106.698C37.2278 106.699 37.0671 106.668 36.9174 106.605C36.7676 106.543 36.6318 106.451 36.5179 106.336C36.404 106.22 36.3143 106.082 36.2542 105.931C36.1941 105.78 36.1648 105.619 36.1679 105.456Z" fill="#1A0000"/>
    <path d="M84.1598 105.964C84.1582 105.721 84.2286 105.483 84.3619 105.28C84.4952 105.078 84.6855 104.919 84.9087 104.825C85.1318 104.731 85.3778 104.706 85.6153 104.752C85.8529 104.799 86.0713 104.915 86.243 105.086C86.4147 105.257 86.5318 105.476 86.5796 105.714C86.6274 105.952 86.6037 106.199 86.5114 106.423C86.4192 106.648 86.2626 106.84 86.0614 106.975C85.8603 107.11 85.6238 107.182 85.3817 107.182C85.0596 107.18 84.7511 107.051 84.5226 106.823C84.2941 106.596 84.1638 106.287 84.1598 105.964Z" fill="#1A0000"/>
    <path d="M49.0649 113.47L50.2324 111.798L50.6371 111.954L49.0649 114.102L48.738 113.97L48.8469 111.923L47.5782 113.532L47.2436 113.399L47.4615 110.72L47.874 110.877L47.6639 112.868L48.9092 111.306L49.2439 111.431L49.0649 113.47Z" fill="#1A0000"/>
    <path d="M51.898 114.969C51.8829 114.879 51.8829 114.787 51.898 114.696C51.7828 114.767 51.6542 114.814 51.5202 114.832C51.3863 114.851 51.2499 114.842 51.1197 114.805C50.8974 114.749 50.7035 114.613 50.5748 114.423C50.5188 114.336 50.4821 114.238 50.4673 114.135C50.4526 114.033 50.46 113.928 50.4892 113.829C50.5178 113.711 50.5755 113.602 50.6571 113.511C50.7387 113.421 50.8416 113.353 50.9562 113.314C51.244 113.216 51.5557 113.216 51.8435 113.314L52.256 113.431L52.3105 113.235C52.338 113.174 52.3522 113.107 52.3522 113.04C52.3522 112.973 52.338 112.906 52.3105 112.845C52.2715 112.781 52.2194 112.727 52.1576 112.685C52.0959 112.643 52.0259 112.615 51.9525 112.603C51.819 112.556 51.6735 112.556 51.54 112.603C51.4852 112.619 51.4356 112.649 51.396 112.69C51.3565 112.731 51.3283 112.782 51.3142 112.837L50.8862 112.712C50.9233 112.581 51.0061 112.467 51.1197 112.392C51.2444 112.297 51.3923 112.238 51.5477 112.22C51.7249 112.194 51.9055 112.208 52.077 112.259C52.3249 112.314 52.544 112.458 52.6919 112.665C52.7514 112.764 52.7898 112.874 52.8045 112.988C52.8193 113.102 52.8101 113.219 52.7775 113.329L52.4506 114.47C52.3912 114.653 52.37 114.847 52.3883 115.04L51.898 114.969ZM51.2831 114.446C51.4157 114.482 51.5553 114.482 51.6878 114.446C51.8158 114.415 51.932 114.347 52.0225 114.251L52.1626 113.743L51.8357 113.649C51.3168 113.504 51.0133 113.582 50.9251 113.884C50.9047 113.942 50.8983 114.004 50.9064 114.065C50.9145 114.126 50.9369 114.184 50.9718 114.235C51.0483 114.339 51.1582 114.414 51.2831 114.446Z" fill="#1A0000"/>
    <path d="M54.303 112.251L54.1707 112.861L54.6377 112.962L54.5676 113.298L54.0928 113.189L53.7581 114.751C53.7302 114.829 53.7302 114.915 53.7581 114.993C53.7807 115.027 53.8105 115.056 53.8455 115.078C53.8804 115.1 53.9197 115.113 53.9605 115.118H54.1707L54.0928 115.461C53.9792 115.477 53.864 115.477 53.7504 115.461C53.6681 115.448 53.5898 115.417 53.5211 115.37C53.4525 115.322 53.3952 115.26 53.3534 115.188C53.2935 115.019 53.2935 114.834 53.3534 114.665L53.6959 113.103L53.2367 113.009L53.3067 112.673L53.7659 112.775L53.8982 112.165L54.303 112.251Z" fill="#1A0000"/>
    <path d="M55.7896 115.461C55.937 115.487 56.0887 115.46 56.2177 115.383C56.2795 115.351 56.3337 115.305 56.3767 115.25C56.4196 115.195 56.4503 115.131 56.4667 115.063L56.8792 115.126C56.8475 115.277 56.7717 115.416 56.6613 115.524C56.5447 115.644 56.4003 115.732 56.241 115.782C56.0776 115.834 55.9045 115.847 55.7351 115.821C55.5788 115.802 55.4282 115.75 55.2939 115.668C55.1595 115.586 55.0445 115.475 54.9568 115.344C54.7858 115.041 54.7305 114.686 54.8011 114.345V114.266C54.8362 114.038 54.9184 113.82 55.0424 113.626C55.1547 113.456 55.3144 113.323 55.5016 113.243C55.6998 113.156 55.9197 113.132 56.132 113.173C56.3952 113.207 56.6364 113.338 56.8092 113.54C56.8892 113.64 56.9478 113.755 56.9813 113.879C57.0148 114.003 57.0225 114.132 57.0038 114.259L56.5913 114.196C56.607 114.04 56.5624 113.885 56.4668 113.761C56.3711 113.637 56.2318 113.555 56.0776 113.532C55.9797 113.512 55.8786 113.516 55.7825 113.544C55.6864 113.571 55.5982 113.62 55.5249 113.688C55.3596 113.872 55.2585 114.105 55.237 114.352V114.438C55.1858 114.675 55.2131 114.922 55.3148 115.141C55.3616 115.23 55.4294 115.305 55.5122 115.361C55.5951 115.417 55.6903 115.451 55.7896 115.461Z" fill="#1A0000"/>
    <path d="M58.0156 113.782C58.1129 113.674 58.2339 113.59 58.369 113.538C58.5041 113.485 58.6496 113.464 58.794 113.477C59.3388 113.524 59.5723 113.852 59.5723 114.469L59.44 116.172L58.9963 116.133L59.1364 114.43C59.1616 114.283 59.1281 114.131 59.043 114.009C58.9937 113.957 58.9346 113.916 58.869 113.887C58.8035 113.859 58.733 113.845 58.6616 113.845C58.5285 113.829 58.394 113.859 58.2803 113.93C58.166 113.995 58.0717 114.089 58.0078 114.204L57.8522 116.039H57.4163L57.7121 112.384H58.1479L58.0156 113.782Z" fill="#1A0000"/>
    <path d="M61.3702 115.297C61.3734 115.13 61.4248 114.967 61.5181 114.829C61.6645 114.633 61.8404 114.462 62.0396 114.321C61.9102 114.189 61.8001 114.039 61.7127 113.876C61.6594 113.772 61.6302 113.657 61.6271 113.54C61.6146 113.427 61.6269 113.312 61.6632 113.204C61.6995 113.096 61.7589 112.998 61.8372 112.915C62.0038 112.764 62.2178 112.676 62.4423 112.666C62.6668 112.656 62.8877 112.725 63.067 112.861C63.143 112.923 63.2046 113.002 63.2476 113.091C63.2906 113.18 63.3139 113.277 63.316 113.376C63.3173 113.512 63.2852 113.646 63.2226 113.767C63.1288 113.918 63.0042 114.049 62.8568 114.149L62.6155 114.352L63.3939 115.251C63.4962 115.034 63.5443 114.795 63.534 114.555H63.9309C63.9588 114.913 63.8685 115.27 63.6741 115.571L64.1878 116.157H63.6585L63.4172 115.883C63.301 115.996 63.1633 116.083 63.0125 116.141C62.8607 116.199 62.7001 116.231 62.5377 116.235C62.2421 116.261 61.9474 116.175 61.7127 115.993C61.6087 115.909 61.5242 115.803 61.465 115.683C61.4059 115.563 61.3735 115.431 61.3702 115.297ZM62.5144 115.883C62.7543 115.874 62.9808 115.77 63.1448 115.594L62.2964 114.61L62.2186 114.673C62.11 114.737 62.0185 114.826 61.9521 114.934C61.8857 115.041 61.8462 115.163 61.8372 115.29C61.8365 115.373 61.8535 115.456 61.887 115.533C61.9205 115.61 61.9699 115.679 62.0318 115.735C62.1687 115.843 62.3407 115.896 62.5144 115.883ZM62.0396 113.54C62.0783 113.757 62.1845 113.957 62.3431 114.11L62.6155 113.899C62.7038 113.841 62.7782 113.763 62.8335 113.673C62.8696 113.595 62.8856 113.509 62.8802 113.423C62.8802 113.372 62.8691 113.322 62.8476 113.276C62.826 113.23 62.7946 113.19 62.7556 113.157C62.6706 113.087 62.5616 113.054 62.4521 113.064C62.3939 113.06 62.3359 113.072 62.283 113.096C62.2301 113.121 62.1839 113.158 62.1485 113.204C62.0779 113.293 62.0395 113.403 62.0396 113.517V113.54Z" fill="#1A0000"/>
    <path d="M65.6588 114.68C65.5875 114.344 65.6372 113.992 65.7989 113.688C65.8644 113.562 65.9596 113.455 66.0763 113.374C66.193 113.294 66.3276 113.244 66.4683 113.228C66.6043 113.198 66.7453 113.2 66.8803 113.234C67.0153 113.268 67.1407 113.332 67.2466 113.423L67.052 112.095L67.4879 112.033L68.025 115.657L67.6202 115.719L67.558 115.446C67.4871 115.566 67.3887 115.668 67.271 115.742C67.1532 115.817 67.0195 115.863 66.8808 115.875C66.74 115.896 66.5965 115.883 66.4614 115.839C66.3263 115.794 66.2035 115.718 66.1025 115.618C65.8673 115.37 65.7196 115.052 65.6822 114.712L65.6588 114.68ZM66.1025 114.68C66.1194 114.922 66.2183 115.151 66.3827 115.329C66.4493 115.4 66.5327 115.453 66.6253 115.483C66.7178 115.513 66.8164 115.519 66.9119 115.501C67.0388 115.486 67.1588 115.435 67.257 115.353C67.3552 115.271 67.4274 115.162 67.4646 115.04L67.2855 113.868C67.2143 113.764 67.1147 113.683 66.9987 113.635C66.8828 113.586 66.7554 113.572 66.6317 113.595C66.5348 113.606 66.4422 113.641 66.3621 113.697C66.2819 113.753 66.2168 113.828 66.1725 113.915C66.0758 114.152 66.0514 114.413 66.1025 114.665V114.68Z" fill="#1A0000"/>
    <path d="M69.5661 113.095H69.3481C69.2244 113.112 69.1093 113.168 69.0197 113.255C68.93 113.342 68.8705 113.456 68.85 113.579L69.2314 115.376L68.7955 115.461L68.2663 112.939L68.6866 112.853L68.7488 113.142C68.7864 113.023 68.8554 112.916 68.9487 112.834C69.0419 112.751 69.1558 112.696 69.2781 112.673C69.3447 112.658 69.4139 112.658 69.4805 112.673L69.5661 113.095Z" fill="#1A0000"/>
    <path d="M69.6751 111.954C69.6518 111.891 69.6518 111.822 69.6751 111.759C69.6917 111.727 69.716 111.699 69.7459 111.679C69.7758 111.658 69.8103 111.646 69.8463 111.642C69.8777 111.626 69.9123 111.618 69.9475 111.618C69.9826 111.618 70.0172 111.626 70.0487 111.642C70.0767 111.659 70.1009 111.682 70.1197 111.708C70.1385 111.735 70.1514 111.766 70.1576 111.798C70.1715 111.828 70.1786 111.86 70.1786 111.892C70.1786 111.924 70.1715 111.956 70.1576 111.986C70.14 112.017 70.1154 112.044 70.0857 112.064C70.056 112.085 70.022 112.098 69.9864 112.103C69.9531 112.117 69.9174 112.124 69.8813 112.124C69.8452 112.124 69.8095 112.117 69.7762 112.103C69.7291 112.064 69.694 112.013 69.6751 111.954ZM70.9437 115.001L70.5156 115.11L69.8852 112.603L70.3055 112.493L70.9437 115.001Z" fill="#1A0000"/>
    <path d="M71.3641 112.205L71.4808 112.509C71.5296 112.368 71.6118 112.241 71.7202 112.139C71.8287 112.037 71.9602 111.963 72.1035 111.923C72.6249 111.759 72.9752 111.97 73.162 112.556L73.6757 114.181L73.2554 114.313L72.7417 112.689C72.7079 112.543 72.622 112.416 72.5004 112.329C72.4352 112.302 72.365 112.287 72.2942 112.287C72.2233 112.287 72.1532 112.302 72.0879 112.329C71.958 112.365 71.8432 112.441 71.761 112.548C71.6811 112.656 71.6302 112.782 71.6131 112.915L72.158 114.665L71.7377 114.798L70.9593 112.337L71.3641 112.205Z" fill="#1A0000"/>
    <path d="M74.6641 112.532L74.5162 112.899L74.8509 113.743L74.4384 113.907L73.0919 110.502L73.4966 110.338L74.2749 112.4L74.3917 112.048L74.8275 110.962L75.3257 110.759L74.7886 112.134L76.3842 113.118L75.9016 113.306L74.6641 112.532Z" fill="#1A0000"/>
    <path d="M85.1327 15.1106H36.705C38.45 21.8011 39.84 28.5799 40.869 35.4182H80.9764C81.9992 28.5793 83.3866 21.8004 85.1327 15.1106Z" fill="white"/>
    <path d="M77.365 9.42445C77.1041 9.4269 76.8438 9.45041 76.5867 9.49475C76.0464 8.3277 75.185 7.33999 74.1038 6.64806C73.0226 5.95612 71.7669 5.58881 70.4845 5.58944C70.29 5.58944 70.1032 5.58944 69.9086 5.58944C69.1534 3.92271 67.9361 2.50936 66.402 1.5182C64.8679 0.527053 63.082 0 61.2574 0C59.4329 0 57.6469 0.527053 56.1129 1.5182C54.5788 2.50936 53.3615 3.92271 52.6063 5.58944C52.4195 5.58944 52.2249 5.58944 52.0303 5.58944C50.748 5.58881 49.4922 5.95612 48.4111 6.64806C47.3299 7.33999 46.4684 8.3277 45.9282 9.49475C45.6711 9.44996 45.4108 9.42645 45.1499 9.42445C44.0873 9.42048 43.0533 9.76912 42.2086 10.4161C41.364 11.0631 40.7563 11.9721 40.4799 13.0017H81.926C81.6558 11.9894 81.0646 11.0928 80.2418 10.4475C79.419 9.80212 78.4092 9.44303 77.365 9.42445Z" fill="white"/>
    <path d="M60.1872 98.9732C61.1286 98.9732 61.8917 98.2073 61.8917 97.2627C61.8917 96.318 61.1286 95.5521 60.1872 95.5521C59.2458 95.5521 58.4826 96.318 58.4826 97.2627C58.4826 98.2073 59.2458 98.9732 60.1872 98.9732Z" fill="white"/>
    <path d="M74.8976 44.2364C75.839 44.2364 76.6022 43.4705 76.6022 42.5258C76.6022 41.5811 75.839 40.8153 74.8976 40.8153C73.9562 40.8153 73.1931 41.5811 73.1931 42.5258C73.1931 43.4705 73.9562 44.2364 74.8976 44.2364Z" fill="white"/>
    <path d="M66.7641 52.9452C67.7055 52.9452 68.4686 52.1794 68.4686 51.2347C68.4686 50.29 67.7055 49.5242 66.7641 49.5242C65.8227 49.5242 65.0595 50.29 65.0595 51.2347C65.0595 52.1794 65.8227 52.9452 66.7641 52.9452Z" fill="white"/>
    <path d="M50.8082 43.4709C50.8098 43.1329 50.9111 42.803 51.0993 42.5227C51.2875 42.2425 51.5543 42.0244 51.8659 41.8962C52.1775 41.7679 52.5199 41.7351 52.8501 41.802C53.1802 41.8689 53.4832 42.0324 53.7208 42.2719C53.9584 42.5115 54.12 42.8163 54.1851 43.1479C54.2503 43.4795 54.2161 43.823 54.0868 44.1351C53.9576 44.4472 53.7391 44.7139 53.459 44.9015C53.1788 45.0891 52.8496 45.1892 52.5128 45.1892C52.2883 45.1892 52.066 45.1447 51.8587 45.0583C51.6514 44.9718 51.4631 44.8451 51.3047 44.6855C51.1464 44.5258 51.021 44.3363 50.9358 44.1279C50.8506 43.9195 50.8072 43.6962 50.8082 43.4709Z" fill="white"/>
    <path d="M49.0025 135.347H46.7843V126.756L44.138 127.584V125.764L48.7613 124.1H49.0025V135.347Z" fill="white"/>
    <path d="M57.821 130.864C57.557 131.136 57.2409 131.351 56.8919 131.498C56.5428 131.644 56.1679 131.718 55.7896 131.715C55.349 131.73 54.9107 131.646 54.5067 131.469C54.1027 131.292 53.7432 131.027 53.4546 130.692C52.8242 129.92 52.5048 128.939 52.5595 127.943C52.5538 127.239 52.7194 126.545 53.0421 125.92C53.343 125.325 53.8076 124.829 54.3808 124.491C54.9648 124.144 55.6327 123.965 56.3111 123.975C57.0072 123.964 57.6914 124.157 58.2802 124.53C58.8639 124.912 59.3259 125.454 59.6112 126.092C59.9363 126.83 60.1033 127.628 60.1015 128.435V129.255C60.1937 130.845 59.6976 132.414 58.7083 133.66C58.2091 134.208 57.6002 134.643 56.9214 134.938C56.2427 135.233 55.5095 135.38 54.77 135.371H54.2251V133.574H54.7155C56.6146 133.504 57.6265 132.59 57.821 130.864ZM56.3344 130.013C56.6642 130.022 56.9886 129.927 57.2606 129.739C57.5056 129.563 57.7077 129.333 57.8522 129.068V128.154C57.8883 127.537 57.7362 126.924 57.4163 126.396C57.295 126.208 57.1284 126.053 56.932 125.945C56.7355 125.838 56.5153 125.782 56.2916 125.782C56.0679 125.782 55.8477 125.838 55.6513 125.945C55.4548 126.053 55.2883 126.208 55.1669 126.396C54.866 126.86 54.7164 127.406 54.7388 127.958C54.7167 128.493 54.8638 129.021 55.1591 129.466C55.2944 129.648 55.4727 129.793 55.6779 129.888C55.883 129.984 56.1087 130.027 56.3344 130.013Z" fill="white"/>
    <path d="M69.247 125.373L64.9272 135.347H62.5922L66.9198 125.928H61.3547V124.131H69.247V125.373Z" fill="white"/>
    <path d="M77.9488 127.107C77.9594 127.621 77.8186 128.126 77.544 128.56C77.2643 128.988 76.878 129.335 76.4232 129.567C76.9388 129.81 77.3817 130.184 77.7075 130.653C78.0333 131.128 78.2021 131.694 78.19 132.27C78.2077 132.712 78.1251 133.153 77.9485 133.559C77.7719 133.965 77.5059 134.325 77.1704 134.613C76.3878 135.229 75.4081 135.537 74.4151 135.48C73.4169 135.542 72.4302 135.239 71.6365 134.629C71.302 134.34 71.0366 133.98 70.86 133.574C70.6835 133.168 70.6004 132.728 70.6169 132.286C70.6071 131.708 70.7727 131.142 71.0917 130.661C71.4263 130.183 71.8835 129.805 72.4148 129.567C71.9606 129.338 71.5762 128.99 71.3018 128.56C71.0273 128.126 70.8865 127.621 70.8971 127.107C70.8796 126.68 70.9556 126.255 71.1196 125.861C71.2837 125.467 71.5319 125.114 71.8466 124.826C72.5964 124.276 73.5015 123.979 74.4307 123.979C75.3599 123.979 76.265 124.276 77.0148 124.826C77.3284 125.114 77.5748 125.468 77.7363 125.862C77.8978 126.256 77.9703 126.681 77.9488 127.107ZM75.964 132.106C75.9756 131.893 75.9437 131.68 75.87 131.48C75.7964 131.279 75.6827 131.097 75.5359 130.942C75.2284 130.658 74.8255 130.5 74.4074 130.5C73.9892 130.5 73.5863 130.658 73.2788 130.942C73.131 131.097 73.0168 131.282 72.9431 131.483C72.8694 131.685 72.838 131.899 72.8507 132.114C72.8322 132.538 72.9803 132.953 73.2632 133.27C73.5805 133.547 73.9868 133.699 74.4074 133.699C74.8279 133.699 75.2342 133.547 75.5515 133.27C75.6933 133.113 75.8027 132.929 75.8735 132.729C75.9443 132.529 75.975 132.318 75.964 132.106ZM75.7305 127.217C75.7468 126.837 75.6251 126.465 75.3881 126.17C75.126 125.919 74.7775 125.779 74.4151 125.779C74.0528 125.779 73.7043 125.919 73.4422 126.17C73.2016 126.47 73.0796 126.848 73.0998 127.232C73.0815 127.621 73.2031 128.003 73.4422 128.31C73.5632 128.448 73.7134 128.556 73.8818 128.628C74.0502 128.7 74.2324 128.732 74.4151 128.724C74.5981 128.734 74.7809 128.702 74.9495 128.63C75.1182 128.559 75.2682 128.449 75.3881 128.31C75.6308 127.999 75.7525 127.611 75.7305 127.217Z" fill="white"/>
    <path d="M43.3908 61.3494H41.9586C41.8341 60.3887 41.3827 59.9044 40.6043 59.9044C40.4007 59.8865 40.1955 59.909 40.0006 59.9707C39.8056 60.0323 39.6246 60.1319 39.468 60.2637C39.3354 60.4097 39.234 60.5813 39.1697 60.7679C39.1055 60.9546 39.0799 61.1525 39.0944 61.3494C39.1032 61.7295 39.2499 62.0933 39.5069 62.3726L42.5424 65.7858C43.0696 66.3316 43.3725 67.0567 43.3908 67.8166V68.5274C43.3931 68.9046 43.3191 69.2784 43.1733 69.6261C43.0274 69.9738 42.8128 70.2882 42.5424 70.5503C42.28 70.8265 41.9631 71.0448 41.6121 71.1913C41.261 71.3379 40.8833 71.4095 40.5032 71.4017H39.0944C38.7073 71.4313 38.3182 71.3837 37.9495 71.2617C37.5808 71.1397 37.2398 70.9457 36.9462 70.6909C36.687 70.3975 36.4894 70.0547 36.365 69.683C36.2406 69.3113 36.1921 68.9183 36.2223 68.5274H37.6623V68.7461C37.6555 68.9219 37.6934 69.0966 37.7724 69.2537C37.8514 69.4108 37.9688 69.5452 38.1137 69.6443C38.4014 69.845 38.744 69.9514 39.0944 69.9489C39.2914 69.9661 39.4898 69.9423 39.6773 69.8792C39.8648 69.816 40.0373 69.7148 40.184 69.5818C40.4145 69.2809 40.528 68.9061 40.5032 68.5274C40.4983 68.1488 40.3509 67.786 40.0906 67.512L37.0629 64.0597C36.5333 63.5162 36.2323 62.789 36.2223 62.0289V61.3182C36.2264 60.5558 36.5306 59.8259 37.0685 59.2875C37.6065 58.7491 38.3346 58.4459 39.0944 58.4438H40.5032C42.3141 58.4647 43.2766 59.4332 43.3908 61.3494Z" fill="white"/>
    <path d="M46.2395 71.4017V58.4752H51.9758C52.3522 58.4696 52.7257 58.5424 53.0726 58.6889C53.4196 58.8354 53.7325 59.0525 53.9917 59.3265C54.2611 59.589 54.4745 59.9036 54.619 60.2514C54.7635 60.5991 54.8361 60.9727 54.8323 61.3495V62.7866C54.8403 63.1686 54.7698 63.5481 54.6252 63.9016C54.4806 64.255 54.2649 64.5747 53.9917 64.8408C53.7325 65.1148 53.4196 65.3319 53.0726 65.4784C52.7257 65.6249 52.3522 65.6977 51.9758 65.6922H49.1115V71.4017H46.2395ZM49.1115 64.216H50.5359C50.724 64.217 50.9104 64.1808 51.0845 64.1096C51.2587 64.0383 51.4171 63.9333 51.5508 63.8006C51.6846 63.6678 51.7909 63.51 51.8638 63.336C51.9367 63.162 51.9748 62.9753 51.9758 62.7866V61.3495C51.9768 61.1594 51.9403 60.9711 51.8683 60.7953C51.7963 60.6195 51.6903 60.4598 51.5564 60.3254C51.4224 60.191 51.2633 60.0846 51.0881 60.0124C50.913 59.9401 50.7253 59.9035 50.5359 59.9045H49.1115V64.216Z" fill="white"/>
    <path d="M60.5686 58.4751H63.4406C63.8158 58.4701 64.1879 58.5432 64.5335 58.6898C64.8791 58.8363 65.1907 59.0531 65.4487 59.3265C65.7191 59.5885 65.9338 59.9029 66.0796 60.2506C66.2254 60.5984 66.2994 60.9721 66.2971 61.3494V68.5274C66.2994 68.9046 66.2254 69.2784 66.0796 69.6261C65.9338 69.9738 65.7191 70.2882 65.4487 70.5503C65.1907 70.8237 64.8791 71.0405 64.5335 71.187C64.1879 71.3335 63.8158 71.4066 63.4406 71.4017H60.5686C60.1931 71.4055 59.8209 71.3326 59.4743 71.1876C59.1278 71.0426 58.8142 70.8284 58.5527 70.5581C58.2795 70.2966 58.0631 69.9812 57.9171 69.6317C57.7711 69.2822 57.6986 68.9063 57.7043 68.5274V61.3494C57.6986 60.9705 57.7711 60.5945 57.9171 60.2451C58.0631 59.8956 58.2795 59.5802 58.5527 59.3186C58.8142 59.0483 59.1278 58.8341 59.4743 58.6891C59.8209 58.5441 60.1931 58.4713 60.5686 58.4751ZM60.5686 61.3494V68.5274C60.5671 68.7163 60.6035 68.9035 60.6757 69.078C60.7479 69.2524 60.8544 69.4105 60.9889 69.5427C61.1209 69.679 61.2788 69.7874 61.4533 69.8613C61.6277 69.9353 61.8152 69.9734 62.0046 69.9734C62.194 69.9734 62.3815 69.9353 62.5559 69.8613C62.7304 69.7874 62.8883 69.679 63.0203 69.5427C63.1548 69.4105 63.2613 69.2524 63.3335 69.078C63.4057 68.9035 63.4421 68.7163 63.4406 68.5274V61.3494C63.4552 61.1512 63.4288 60.9522 63.3633 60.7647C63.2977 60.5772 63.1943 60.4053 63.0595 60.2597C62.9247 60.1142 62.7615 59.9981 62.58 59.9187C62.3985 59.8393 62.2026 59.7983 62.0046 59.7983C61.8066 59.7983 61.6107 59.8393 61.4292 59.9187C61.2477 59.9981 61.0845 60.1142 60.9497 60.2597C60.8149 60.4053 60.7115 60.5772 60.6459 60.7647C60.5804 60.9522 60.554 61.1512 60.5686 61.3494Z" fill="white"/>
    <path d="M69.1613 71.4017V58.4751H74.9054C75.2806 58.4701 75.6527 58.5432 75.9983 58.6898C76.3439 58.8363 76.6555 59.0531 76.9135 59.3265C77.1829 59.5889 77.3963 59.9036 77.5408 60.2513C77.6853 60.5991 77.7579 60.9726 77.7541 61.3494V62.1305C77.7391 62.8044 77.5039 63.4548 77.0848 63.9816C76.8166 64.2894 76.4786 64.5281 76.0994 64.6776C75.7202 64.8271 75.3107 64.883 74.9054 64.8407H76.3064C76.4936 64.8385 76.6793 64.8747 76.852 64.9473C77.0247 65.0198 77.1807 65.1271 77.3105 65.2625C77.4462 65.3954 77.5535 65.5547 77.6258 65.7306C77.6981 65.9065 77.7338 66.0954 77.7308 66.2857V71.4017H74.9054V67.098C74.9082 66.9082 74.8716 66.7199 74.7979 66.5451C74.7242 66.3703 74.615 66.2128 74.4773 66.0826C74.3455 65.9456 74.1869 65.8375 74.0114 65.7649C73.836 65.6923 73.6475 65.6569 73.4577 65.6609H72.0334V71.4017H69.1613ZM72.0334 64.2159H73.4577C73.6475 64.2199 73.836 64.1844 74.0114 64.1119C74.1869 64.0393 74.3455 63.9311 74.4773 63.7941C74.6148 63.6655 74.724 63.5094 74.7977 63.3358C74.8714 63.1623 74.9081 62.9752 74.9054 62.7866V61.3494C74.9034 60.9655 74.7499 60.5979 74.4787 60.3272C74.2074 60.0564 73.8403 59.9044 73.4577 59.9044H72.0334V64.2159Z" fill="white"/>
    <path d="M82.0661 71.4017V59.9045H79.2018V58.4752H87.7635V59.9045H84.8992V71.4017H82.0661Z" fill="white"/>
    <path d="M45.5235 88.5851V75.6585H51.2676C51.6427 75.6535 52.0148 75.7266 52.3604 75.8732C52.706 76.0197 53.0177 76.2365 53.2756 76.5099C53.545 76.7723 53.7584 77.087 53.9029 77.4347C54.0474 77.7825 54.12 78.1561 54.1162 78.5328V79.2436C54.1386 79.6064 54.0873 79.97 53.9656 80.3123C53.8438 80.6546 53.6541 80.9686 53.408 81.2353C52.8135 81.7635 52.0601 82.0769 51.2676 82.1257C51.6666 82.0962 52.0671 82.1591 52.4382 82.3094C52.8093 82.4597 53.1411 82.6935 53.408 82.9927C53.8758 83.5552 54.1271 84.2674 54.1162 85V85.7108C54.12 86.0875 54.0474 86.4611 53.9029 86.8089C53.7584 87.1566 53.545 87.4713 53.2756 87.7337C53.0177 88.0071 52.706 88.2239 52.3604 88.3704C52.0148 88.5169 51.6427 88.59 51.2676 88.5851H45.5235ZM48.3955 81.3993H49.8432C50.0341 81.4029 50.2236 81.3674 50.4003 81.2949C50.577 81.2224 50.737 81.1144 50.8706 80.9775C51.0055 80.8473 51.1125 80.6907 51.1848 80.5174C51.257 80.3441 51.2932 80.1578 51.2909 79.97V78.5328C51.2919 78.3421 51.2552 78.1531 51.1827 77.9768C51.1102 77.8005 51.0035 77.6404 50.8687 77.506C50.734 77.3715 50.5739 77.2652 50.3979 77.1935C50.2218 77.1217 50.0332 77.0858 49.8432 77.0878H48.3955V81.3993ZM48.3955 87.1557H49.8432C50.0348 87.1598 50.2252 87.1237 50.4021 87.0497C50.579 86.9757 50.7385 86.8655 50.8706 86.7261C51.005 86.5939 51.1116 86.4359 51.1838 86.2614C51.256 86.0869 51.2924 85.8997 51.2909 85.7108V84.2814C51.3187 84.0848 51.3002 83.8844 51.237 83.6963C51.1738 83.5081 51.0677 83.3374 50.927 83.1977C50.7863 83.0581 50.6151 82.9534 50.4269 82.892C50.2387 82.8306 50.0388 82.8143 49.8432 82.8443H48.3955V87.1557Z" fill="white"/>
    <path d="M56.9882 88.5851V78.5328C56.9825 78.1539 57.055 77.778 57.201 77.4285C57.347 77.079 57.5634 76.7636 57.8366 76.5021C58.0996 76.2315 58.4145 76.0173 58.7623 75.8723C59.1102 75.7273 59.4837 75.6546 59.8603 75.6585H62.7245C63.1009 75.6534 63.4742 75.7264 63.8211 75.8729C64.168 76.0194 64.481 76.2363 64.7404 76.5099C65.0098 76.7723 65.2232 77.087 65.3677 77.4347C65.5122 77.7825 65.5848 78.1561 65.581 78.5328V88.5851H62.7245V82.8443H59.8603V88.5851H56.9882ZM59.8603 81.3993H62.7245V78.5328C62.7256 78.3428 62.689 78.1544 62.617 77.9786C62.545 77.8029 62.439 77.6432 62.3051 77.5088C62.1712 77.3744 62.012 77.268 61.8369 77.1957C61.6617 77.1235 61.474 77.0868 61.2846 77.0879C61.0974 77.0856 60.9117 77.1218 60.7391 77.1944C60.5664 77.2669 60.4103 77.3742 60.2806 77.5096C60.1448 77.6425 60.0375 77.8018 59.9652 77.9777C59.893 78.1537 59.8572 78.3425 59.8603 78.5328V81.3993Z" fill="white"/>
    <path d="M68.4531 88.5851V75.6585H74.1894C74.5645 75.6535 74.9366 75.7266 75.2822 75.8732C75.6279 76.0197 75.9395 76.2365 76.1975 76.5099C76.4668 76.7723 76.6803 77.087 76.8248 77.4347C76.9693 77.7825 77.0418 78.1561 77.0381 78.5328V79.3139C77.0302 79.9852 76.8033 80.6355 76.392 81.165C76.1207 81.4752 75.7788 81.7153 75.3954 81.8648C75.012 82.0144 74.5983 82.069 74.1894 82.0242H75.6137C75.8009 82.0219 75.9866 82.0581 76.1593 82.1307C76.332 82.2032 76.488 82.3105 76.6178 82.4459C76.7535 82.5788 76.8608 82.7381 76.9331 82.914C77.0054 83.09 77.0411 83.2788 77.0381 83.4691V88.5538H74.1894V84.2502C74.1894 84.0608 74.1521 83.8733 74.0796 83.6984C74.0071 83.5235 73.901 83.3647 73.7672 83.2312C73.6333 83.0976 73.4745 82.9919 73.2999 82.9202C73.1252 82.8484 72.9382 82.812 72.7494 82.813H71.3173V88.5538L68.4531 88.5851ZM71.3173 81.3993H72.7494C72.9391 81.4023 73.1273 81.3665 73.3026 81.294C73.4779 81.2214 73.6367 81.1138 73.7691 80.9775C73.904 80.8473 74.0109 80.6907 74.0832 80.5174C74.1555 80.3441 74.1916 80.1578 74.1894 79.97V78.5328C74.1904 78.3428 74.1539 78.1544 74.0819 77.9786C74.0099 77.8028 73.9038 77.6431 73.7699 77.5088C73.636 77.3744 73.4769 77.268 73.3017 77.1957C73.1265 77.1235 72.9388 77.0868 72.7494 77.0878H71.3173V81.3993Z" fill="white"/>
</svg>
