<svg width="36" height="36" viewBox="0 0 36 36" fill="none" xmlns="http://www.w3.org/2000/svg">
    <g opacity="0.95">
        <path d="M6 3H12C12.3458 2.99993 12.681 3.11933 12.9489 3.33801C13.2167 3.55668 13.4008 3.86119 13.47 4.2L14.97 11.7C15.0183 11.941 15.0066 12.1901 14.9359 12.4255C14.8653 12.6609 14.7379 12.8754 14.565 13.05L10.785 16.83C12.5576 20.4884 15.5116 23.4424 19.17 25.215L22.935 21.435C23.1096 21.2621 23.3241 21.1347 23.5595 21.0641C23.7949 20.9934 24.044 20.9817 24.285 21.03L31.785 22.53C32.49 22.68 33 23.28 33 24V30C33 30.7956 32.6839 31.5587 32.1213 32.1213C31.5587 32.6839 30.7956 33 30 33H27C20.6348 33 14.5303 30.4714 10.0294 25.9706C5.52856 21.4697 3 15.3652 3 9V6C3 4.35 4.35 3 6 3Z" fill="white"/>
        <path d="M33 15C33 15.3978 32.842 15.7794 32.5607 16.0607C32.2794 16.342 31.8978 16.5 31.5 16.5C31.1022 16.5 30.7206 16.342 30.4393 16.0607C30.158 15.7794 30 15.3978 30 15C30 12.6131 29.0518 10.3239 27.364 8.63604C25.6761 6.94821 23.3869 6 21 6C20.6022 6 20.2206 5.84196 19.9393 5.56066C19.658 5.27936 19.5 4.89782 19.5 4.5C19.5 4.10218 19.658 3.72064 19.9393 3.43934C20.2206 3.15804 20.6022 3 21 3C24.1826 3 27.2348 4.26428 29.4853 6.51472C31.7357 8.76516 33 11.8174 33 15ZM27 15C27 15.3978 26.842 15.7794 26.5607 16.0607C26.2794 16.342 25.8978 16.5 25.5 16.5C25.1022 16.5 24.7206 16.342 24.4393 16.0607C24.158 15.7794 24 15.3978 24 15C24 14.2044 23.6839 13.4413 23.1213 12.8787C22.5587 12.3161 21.7956 12 21 12C20.6022 12 20.2206 11.842 19.9393 11.5607C19.658 11.2794 19.5 10.8978 19.5 10.5C19.5 10.1022 19.658 9.72064 19.9393 9.43934C20.2206 9.15804 20.6022 9 21 9C22.5913 9 24.1174 9.63214 25.2426 10.7574C26.3679 11.8826 27 13.4087 27 15Z" fill="white"/>
    </g>
</svg>
